<?xml version="1.0" encoding="utf-8"?>
<!-- Generator: Adobe Illustrator 18.1.1, SVG Export Plug-In . SVG Version: 6.00 Build 0)  -->
<svg version="1.1" xmlns="http://www.w3.org/2000/svg" xmlns:xlink="http://www.w3.org/1999/xlink" x="0px" y="0px"
	 viewBox="2.2 62.8 96.8 17.2" enable-background="new 2.2 62.8 96.8 17.2" xml:space="preserve">
<g id="Layer_2">
</g>
<g id="Layer_1">
	<g>
		<path fill="#FFFFFF" d="M4.8,65.1v3h-1v-3H2.3v-0.9h4v0.9L4.8,65.1L4.8,65.1z"/>
		<path fill="#FFFFFF" d="M9.7,66.7H7.8v1.5h-1v-3.9h1v1.5h1.9v-1.5h1v3.9h-1V66.7z"/>
		<path fill="#FFFFFF" d="M11.5,68.1v-3.9h4v0.9h-3.1v0.7h2.7v0.8h-2.7v0.7h3.1v0.9C15.5,68.1,11.5,68.1,11.5,68.1z"/>
		<path fill="#FFFFFF" d="M18.6,65.6h-0.1v2.5h-1v-3.9h1.1l2.3,2.4h0.1v-2.4h1v3.9h-1.1L18.6,65.6z"/>
		<path fill="#FFFFFF" d="M22.9,68.1v-3.9h2.8v0.9h-1.8v0.7h1.5v0.8h-1.5v0.7h1.8v0.9C25.6,68.1,22.9,68.1,22.9,68.1z"/>
		<path fill="#FFFFFF" d="M25.9,64.2H27l0.8,3.1H28l0.8-3.1h1.8l0.9,3.1h0.2l0.7-3.1h1.1l-1.1,3.9h-1.7L29.9,65h-0.3l-0.8,3.1H27
			L25.9,64.2z"/>
		<path fill="#FFFFFF" d="M35.2,65.4c0-0.8,0.9-1.3,2.1-1.3c0.8,0,1.7,0.1,2,0.3l-0.2,0.8C38.8,65.1,38,65,37.3,65
			c-0.8,0-1.1,0.1-1.1,0.3c0,0.7,3.3,0,3.3,1.6c0,0.7-0.7,1.3-2.2,1.3c-0.7,0-1.6-0.1-2-0.2l0-0.9c0.4,0.2,1.1,0.3,2,0.3
			c0.8,0,1.2-0.1,1.2-0.3C38.5,66.4,35.2,67,35.2,65.4z"/>
		<path fill="#FFFFFF" d="M42.8,68.1c-0.3,0.1-0.6,0.1-1,0.1c-1.2,0-2-0.9-2-2c0-1.1,0.9-2,2.1-2c0.3,0,0.7,0,1,0.1l-0.1,0.9
			c-0.3-0.1-0.6-0.1-0.9-0.1c-0.7,0-1.1,0.4-1.1,1.1c0,0.7,0.5,1.1,1.2,1.1c0.5,0,0.6,0,0.9-0.1C42.8,67.2,42.8,68.1,42.8,68.1z"/>
		<path fill="#FFFFFF" d="M46.9,66.7h-2.6v1.5h-1v-3.9h1v1.5h2.6v-1.5h1v3.9h-1V66.7z"/>
		<path fill="#FFFFFF" d="M50.5,64.1c1.1,0,2,0.7,2,2c0,1.4-0.9,2.1-2,2.1c-1.1,0-2-0.7-2-2.1C48.4,64.9,49.3,64.1,50.5,64.1z
			 M50.4,67.4c0.6,0,1-0.4,1-1.3c0-0.8-0.4-1.2-1-1.2c-0.6,0-1,0.4-1,1.2C49.5,67,49.9,67.4,50.4,67.4z M54.8,64.1c1.1,0,2,0.7,2,2
			c0,1.4-0.9,2.1-2,2.1c-1.1,0-2-0.7-2-2.1C52.8,64.9,53.6,64.1,54.8,64.1z M54.8,67.4c0.6,0,1-0.4,1-1.3c0-0.8-0.4-1.2-1-1.2
			s-1,0.4-1,1.2C53.8,67,54.2,67.4,54.8,67.4z"/>
		<path fill="#FFFFFF" d="M57.3,64.2h1v3h2.4v0.9h-3.4V64.2z"/>
	</g>
	<rect x="35.1" y="71.4" fill="none" width="25.7" height="4.4"/>
	<g>
		<path fill="#FFFFFF" d="M32.4,70.3h6.3c2,0,3,1.3,3,2.7c0,1.8-1.4,2.9-3,2.9h-4.2v2.5h-2V70.3z M34.5,72.1v2.1h3.9
			c1,0,1.2-0.6,1.2-1.1c0-0.4-0.2-1-1.2-1C38.4,72.1,34.5,72.1,34.5,72.1z"/>
		<path fill="#FFFFFF" d="M46.7,76.8h-3l-0.6,1.5H41l3.2-8.1h2.1l3,8.1h-2.2L46.7,76.8z M44.3,75.2h1.8l-0.9-2.7L44.3,75.2z"/>
		<path fill="#FFFFFF" d="M50.2,70.3h5c1.9,0,2.9,1.3,2.9,2.7c0,1.2-0.6,2.1-1.4,2.5l1.4,2.8h-2.3l-1.1-2.5h-2.5v2.5h-2L50.2,70.3
			L50.2,70.3z M52.2,72.1v2.1h2.6c0.9,0,1.1-0.6,1.1-1.1c0-0.4-0.3-1-1.1-1C54.9,72.1,52.2,72.1,52.2,72.1z"/>
		<path fill="#FFFFFF" d="M58.9,72.8c0-1.7,1.4-2.6,3.1-2.6c1,0,2.1,0.3,2.8,0.6l-0.4,1.7c-0.7-0.4-1.7-0.6-2.5-0.6
			c-0.6,0-1,0.2-1,0.7c0,1.3,4.1,0.6,4.1,3.3c0,1.4-1,2.7-3.2,2.7c-0.9,0-1.9-0.1-2.8-0.5l0.1-1.8c0.8,0.4,1.7,0.6,2.8,0.6
			c0.9,0,1.1-0.3,1.1-0.7C63,74.9,58.9,75.7,58.9,72.8z"/>
		<path fill="#FFFFFF" d="M71.1,70.2c3.2,0,5.4,1.4,5.4,4.2c0,2.9-2.4,4.2-5.4,4.2c-3.1,0-5.5-1.4-5.5-4.2
			C65.7,71.7,67.9,70.2,71.1,70.2z M71.1,76.9c2,0,3.4-0.8,3.4-2.6c0-1.6-1.4-2.4-3.4-2.4s-3.4,0.8-3.4,2.5
			C67.8,76,69.2,76.9,71.1,76.9z"/>
		<path fill="#FFFFFF" d="M80.1,73.2h-0.3v5.2h-2v-8.1h2.4l4.7,5h0.3v-5h2v8.1h-2.3L80.1,73.2z"/>
		<path fill="#FFFFFF" d="M88.4,72.8c0-1.7,1.9-2.6,4.4-2.6c1.7,0,3.4,0.3,4.1,0.6l-0.4,1.7c-0.7-0.4-2.4-0.6-3.8-0.6
			c-1.7,0-2.4,0.2-2.4,0.7c0,1.5,6.8,0.1,6.8,3.3c0,1.4-1.4,2.7-4.5,2.7c-1.4,0-3.3-0.1-4.1-0.5l0.1-1.8c0.8,0.4,2.4,0.6,4.1,0.6
			c1.7,0,2.4-0.3,2.4-0.7C95.2,74.8,88.4,76.1,88.4,72.8z"/>
	</g>
	<line fill="none" stroke="#FFFFFF" stroke-width="0.72" stroke-miterlimit="10" x1="3.8" y1="69.2" x2="97" y2="69.2"/>
	<line fill="none" stroke="#FFFFFF" stroke-width="0.72" stroke-miterlimit="10" x1="3.8" y1="70.7" x2="31.7" y2="70.7"/>
</g>
</svg>
